<svg xmlns="http://www.w3.org/2000/svg" version="1.1" xmlns:xlink="http://www.w3.org/1999/xlink" xmlns:svgjs="http://svgjs.dev/svgjs" width="128" height="128" viewBox="0 0 128 128"><g transform="matrix(0.8046875,0,0,0.8046875,12.333870967741937,12.333870967741937)"><svg viewBox="0 0 155 155" data-background-color="#111111" preserveAspectRatio="xMidYMid meet" height="128" width="128" xmlns="http://www.w3.org/2000/svg" xmlns:xlink="http://www.w3.org/1999/xlink"><g id="tight-bounds" transform="matrix(1,0,0,1,0.25,0.25)"><svg viewBox="0 0 154.5 154.5" height="154.5" width="154.5"><g><svg></svg></g><g><svg viewBox="0 0 154.5 154.5" height="154.5" width="154.5"><g transform="matrix(1,0,0,1,59.016757278,59.6236904059996)"><svg viewBox="0 0 36.46648544399999 35.252619188000814" height="35.252619188000814" width="36.46648544399999"><g><svg viewBox="0 0 36.46648544399999 35.252619188000814" height="35.252619188000814" width="36.46648544399999"><g><svg viewBox="0 0 36.46648544399999 35.252619188000814" height="35.252619188000814" width="36.46648544399999"><g id="textblocktransform"><svg viewBox="0 0 36.46648544399999 35.252619188000814" height="35.252619188000814" width="36.46648544399999" id="textblock"><g><svg viewBox="0 0 36.46648544399999 35.252619188000814" height="35.252619188000814" width="36.46648544399999"><g><svg viewBox="0 0 36.46648544399999 35.252619188000814" height="35.252619188000814" width="36.46648544399999"><g><svg xmlns="http://www.w3.org/2000/svg" viewBox="2.0005401455164424 2.9998904303008356 59.99724843406125 58.00010956969916" x="0" y="0" height="35.252619188000814" width="36.46648544399999" class="icon-icon-0" data-fill-palette-color="accent" id="icon-0"><path d="M61.15 48.212L50.467 32.7a9.981 9.981 0 0 0-3.9-3.595l1.351-2.7a10.278 10.278 0 0 0-0.642-10.3L42.16 8.438a12.21 12.21 0 0 0-20.32 0l-5.113 7.669a10.278 10.278 0 0 0-0.642 10.3l1.35 2.7a9.921 9.921 0 0 0-3.876 3.554L2.85 48.212h0A5 5 0 0 0 7 56h8v4a1 1 0 0 0 1 1H48a1 1 0 0 0 1-1V56h8a5 5 0 0 0 4.149-7.787Zm-42.759-31L23.5 9.547a10.211 10.211 0 0 1 16.992 0l5.113 7.67a8.3 8.3 0 0 1 0.987 2.064l-7.19-3.195-0.008 0A1 1 0 0 0 39 16H25a1 1 0 0 0-0.4 0.084l-0.008 0-7.19 3.2A8.3 8.3 0 0 1 18.391 17.217Zm17.663 5.138a1.9 1.9 0 0 1-1.9-0.118 3.88 3.88 0 0 0-4.318 0 1.9 1.9 0 0 1-1.895 0.118L26 21.382V18H38v3.382ZM38 23.618v3.224A3.162 3.162 0 0 1 34.842 30H29.158A3.162 3.162 0 0 1 26 26.842V23.618l1.052 0.527a3.9 3.9 0 0 0 3.9-0.244 1.889 1.889 0 0 1 2.1 0 3.9 3.9 0 0 0 3.9 0.244ZM17 21.81c0-0.056 0.011-0.11 0.012-0.165L24 18.539v8.3A5.163 5.163 0 0 0 29.158 32h5.684A5.163 5.163 0 0 0 40 26.842v-8.3l6.988 3.106c0 0.055 0.012 0.109 0.012 0.165a8.32 8.32 0 0 1-0.874 3.7L40.382 37H23.618L17.874 25.512A8.32 8.32 0 0 1 17 21.81ZM15 54H7a3 3 0 0 1 0-6h8Zm0-16v8H7c-0.073 0-0.141 0.018-0.213 0.022l8.446-12.267a7.953 7.953 0 0 1 3.1-2.845L21.382 37H16A1 1 0 0 0 15 38ZM47 59H17V39H47Zm1-22H42.618l3.045-6.09a8.025 8.025 0 0 1 3.13 2.886l8.42 12.226c-0.072 0-0.14-0.022-0.213-0.022H49V38A1 1 0 0 0 48 37Zm9 17H49V48h8a3 3 0 0 1 0 6Z" fill="#f012be" data-fill-palette-color="accent"></path></svg></g></svg></g></svg></g></svg></g></svg></g></svg></g></svg></g><g></g></svg></g><defs></defs></svg><rect width="154.5" height="154.5" fill="none" stroke="none" visibility="hidden"></rect></g></svg></g></svg>